<?xml version="1.0" standalone="no"?>
<svg viewBox="0 0 1024 768" version="1.1" xmlns="http://www.w3.org/2000/svg" xmlns:xlink="http://www.w3.org/1999/xlink" stroke-linecap="round" stroke-linejoin="round" fill-rule="evenodd" xml:space="preserve" style="background-color:rgb(0,0,0);" >
<defs >
<style >g[clip-path] > * {vector-effect: non-scaling-stroke;}</style>
<clipPath id="clipId0" >
<path d="M0,768 1024,768 1024,0 0,0 z" />
</clipPath>
</defs>
<g clip-path="url(#clipId0)" fill="none" stroke="rgb(255,255,255)" stroke-width="1px" />
<g clip-path="url(#clipId0)" fill="none" stroke="rgb(255,255,255)" stroke-width="1px" >
<polyline points="45.9002,384.045 10.0464,384.045 " />
<polyline points="978.1,384.045 1013.95,384.045 " />
<polyline points="512,61.3608 512,25.507 " />
<polyline points="512,706.73 512,742.584 " />
</g>
<g clip-path="url(#clipId0)" fill="none" stroke="rgb(255,255,255)" stroke-width="1px" >
<polyline points="45.9002,706.73 45.9002,61.3608 " />
<polyline points="45.9002,61.3608 978.1,61.3608 " />
<polyline points="978.1,61.3608 978.1,706.73 " />
<polyline points="978.1,706.73 45.9002,706.73 " />
<polyline points="10.0464,742.584 10.0464,25.507 " />
<polyline points="10.0464,25.507 1013.95,25.507 " />
<polyline points="1013.95,25.507 1013.95,742.584 " />
<polyline points="1013.95,742.584 10.0464,742.584 " />
</g>
<g clip-path="url(#clipId0)" fill="none" stroke="rgb(255,255,255)" stroke-width="1px" >
<polyline points="10.0392,384.045 81.7612,384.045 " />
<polyline points="512,25.4998 512,97.2218 " />
<polyline points="1013.96,384.045 942.239,384.045 " />
<polyline points="512,742.591 512,670.869 " />
</g>
<g clip-path="url(#clipId0)" fill="none" stroke="rgb(255,255,255)" stroke-width="1px" >
<polyline points="16.9254,555.822 26.8237,527.363 36.722,555.822 " />
<polyline points="20.6373,546.336 33.0102,546.336 " />
<polyline points="984.979,555.822 994.877,527.363 1004.78,555.822 " />
<polyline points="988.691,546.336 1001.06,546.336 " />
<polyline points="19.1015,233.137 19.1015,204.678 30.2371,204.678 33.9489,206.034 35.1862,207.389 36.4235,210.099 36.4235,212.81 35.1862,215.52 33.9489,216.875 30.2371,218.23 19.1015,218.23 30.2371,218.23 33.9489,219.586 35.1862,220.941 36.4235,223.651 36.4235,227.717 35.1862,230.427 33.9489,231.782 30.2371,233.137 19.1015,233.137 " />
<polyline points="987.155,233.137 987.155,204.678 998.29,204.678 1002,206.034 1003.24,207.389 1004.48,210.099 1004.48,212.81 1003.24,215.52 1002,216.875 998.29,218.23 987.155,218.23 998.29,218.23 1002,219.586 1003.24,220.941 1004.48,223.651 1004.48,227.717 1003.24,230.427 1002,231.782 998.29,233.137 987.155,233.137 " />
<polyline points="271.24,713.408 271.24,712.053 272.477,709.342 273.714,707.987 276.189,706.632 281.138,706.632 283.613,707.987 284.85,709.342 286.087,712.053 286.087,714.763 284.85,717.474 282.375,721.539 270.003,735.091 287.325,735.091 " />
<polyline points="271.24,32.1852 271.24,30.83 272.477,28.1196 273.714,26.7645 276.189,25.4093 281.138,25.4093 283.613,26.7645 284.85,28.1196 286.087,30.83 286.087,33.5404 284.85,36.2508 282.375,40.3164 270.003,53.8682 287.325,53.8682 " />
<polyline points="741.67,712.053 744.145,710.698 747.857,706.632 747.857,735.091 " />
<polyline points="741.67,30.83 744.145,29.4748 747.857,25.4093 747.857,53.8682 " />
</g>
<g clip-path="url(#clipId0)" fill="none" stroke="rgb(255,255,255)" stroke-width="1px" >
<path d="M217.024,454.521  A3.58541,3.58541 0 0,0 213.439,458.106 " />
<path d="M213.439,433.008  A3.58541,3.58541 0 0,0 217.024,436.594 " />
<polyline points="356.854,454.521 392.708,447.551 " />
<polyline points="392.708,443.563 356.854,436.594 " />
<polyline points="217.024,454.521 356.854,454.521 " />
<polyline points="356.854,436.594 217.024,436.594 " />
</g>
<g clip-path="url(#clipId0)" fill="none" stroke="rgb(255,255,255)" stroke-width="1px" >
<path d="M213.439,281.382  A76.3527,76.3527 0 0,0 195.508,272.513 " />
<path d="M195.508,583.71  A111.556,111.556 0 0,0 213.439,582.251 " />
</g>
<g clip-path="url(#clipId0)" fill="none" stroke="rgb(255,255,255)" stroke-width="1px" >
<polyline points="195.512,272.514 195.512,403.237 " />
<polyline points="195.508,272.513 195.508,583.71 " />
<polyline points="195.512,583.71 195.512,403.237 " />
<polyline points="213.439,582.251 213.439,403.237 " />
<polyline points="213.439,403.237 213.439,281.382 " />
<polyline points="392.708,443.563 392.708,447.551 " />
<polyline points="356.854,454.521 356.854,436.594 " />
</g>
<g clip-path="url(#clipId0)" fill="none" stroke="rgb(255,255,255)" stroke-width="1px" >
<polyline points="195.905,272.637 195.512,273.029 " />
<polyline points="207.055,277.585 195.512,289.128 " />
<polyline points="213.439,287.3 195.512,305.227 " />
<polyline points="213.439,303.399 195.512,321.326 " />
<polyline points="213.439,319.498 195.512,337.425 " />
<polyline points="213.439,335.597 195.512,353.524 " />
<polyline points="213.439,351.696 195.512,369.622 " />
<polyline points="213.439,367.794 195.512,385.721 " />
<polyline points="213.439,383.893 195.512,401.82 " />
<polyline points="213.439,399.992 195.512,417.919 " />
<polyline points="213.439,416.091 195.512,434.018 " />
<polyline points="213.439,432.19 195.512,450.117 " />
<polyline points="213.439,448.289 198.361,463.366 " />
<polyline points="210.194,403.237 195.512,417.919 " />
<polyline points="213.439,448.289 195.512,466.215 " />
<polyline points="213.439,464.387 195.512,482.314 " />
<polyline points="213.439,480.486 195.512,498.413 " />
<polyline points="213.439,496.585 195.512,514.512 " />
<polyline points="213.439,512.684 195.512,530.611 " />
<polyline points="209.854,532.368 195.512,546.71 " />
<polyline points="212.877,545.443 195.512,562.808 " />
<polyline points="213.439,560.98 195.512,578.907 " />
<polyline points="213.439,577.079 207.471,583.047 " />
</g>
<g clip-path="url(#clipId0)" fill="rgb(255,255,255)" stroke="rgb(255,255,255)" stroke-width="1px" >
<path d="M195.512,215.377 171.834,211.734 171.834,219.019 171.834,219.019 z" />
<path d="M213.439,215.377 237.117,219.019 237.117,211.734 237.117,211.734 z" />
</g>
<g clip-path="url(#clipId0)" fill="none" stroke="rgb(255,255,255)" stroke-width="1px" >
<polyline points="195.512,265.343 195.512,208.206 " />
<polyline points="213.439,274.211 213.439,208.206 " />
<polyline points="195.512,215.377 149.978,215.377 " />
<polyline points="195.512,215.377 213.439,215.377 " />
<polyline points="213.439,215.377 453.308,215.377 " />
<polyline points="318.568,183.318 330.571,183.318 324.024,192.879 327.298,192.879 329.48,194.074 330.571,195.27 331.662,198.855 331.662,201.245 330.571,204.831 328.389,207.221 325.115,208.416 321.842,208.416 318.568,207.221 317.477,206.026 316.386,203.635 " />
<polyline points="340.391,208.416 341.483,207.221 340.391,206.026 339.3,207.221 340.391,208.416 " />
<polyline points="351.303,208.416 352.394,207.221 351.303,206.026 350.212,207.221 351.303,208.416 " />
<polyline points="361.123,189.294 361.123,188.099 362.214,185.709 363.306,184.513 365.488,183.318 369.852,183.318 372.035,184.513 373.126,185.709 374.217,188.099 374.217,190.489 373.126,192.879 370.944,196.465 360.032,208.416 375.308,208.416 " />
<polyline points="390.584,208.416 393.858,207.221 396.04,203.635 397.131,197.66 397.131,194.074 396.04,188.099 393.858,184.513 390.584,183.318 388.402,183.318 385.129,184.513 382.946,188.099 381.855,194.074 381.855,197.66 382.946,203.635 385.129,207.221 388.402,208.416 390.584,208.416 " />
<polyline points="404.769,191.684 404.769,208.416 " />
<polyline points="404.769,196.465 408.043,192.879 410.225,191.684 413.499,191.684 415.681,192.879 416.772,196.465 416.772,208.416 " />
<polyline points="416.772,196.465 420.045,192.879 422.228,191.684 425.501,191.684 427.683,192.879 428.775,196.465 428.775,208.416 " />
<polyline points="437.504,191.684 437.504,208.416 " />
<polyline points="437.504,196.465 440.777,192.879 442.96,191.684 446.233,191.684 448.415,192.879 449.507,196.465 449.507,208.416 " />
<polyline points="449.507,196.465 452.78,192.879 454.962,191.684 458.236,191.684 460.418,192.879 461.509,196.465 461.509,208.416 " />
</g>
<g clip-path="url(#clipId0)" fill="rgb(255,255,255)" stroke="rgb(255,255,255)" stroke-width="1px" >
<path d="M392.708,536.422 369.03,532.78 369.03,540.065 369.03,540.065 z" />
<path d="M213.439,536.422 237.117,540.065 237.117,532.78 237.117,532.78 z" />
</g>
<g clip-path="url(#clipId0)" fill="none" stroke="rgb(255,255,255)" stroke-width="1px" >
<polyline points="392.708,454.722 392.708,543.593 " />
<polyline points="213.439,470.537 213.439,543.593 " />
<polyline points="392.708,536.422 213.439,536.422 " />
<polyline points="278.485,524.681 279.576,527.071 280.667,528.267 283.941,529.462 287.214,529.462 290.488,528.267 292.67,525.876 293.761,522.291 293.761,519.901 292.67,516.315 290.488,513.925 287.214,512.73 283.941,512.73 280.667,513.925 279.576,515.12 280.667,504.364 291.579,504.364 " />
<polyline points="309.037,529.462 312.311,528.267 314.493,524.681 315.584,518.706 315.584,515.12 314.493,509.145 312.311,505.559 309.037,504.364 306.855,504.364 303.582,505.559 301.399,509.145 300.308,515.12 300.308,518.706 301.399,524.681 303.582,528.267 306.855,529.462 309.037,529.462 " />
</g>
<g clip-path="url(#clipId0)" fill="rgb(255,255,255)" stroke="rgb(255,255,255)" stroke-width="1px" >
<path d="M341.906,454.521 338.263,478.198 345.549,478.198 345.549,478.198 z" />
<path d="M341.906,436.594 345.549,412.916 338.263,412.916 338.263,412.916 z" />
</g>
<g clip-path="url(#clipId0)" fill="none" stroke="rgb(255,255,255)" stroke-width="1px" >
<polyline points="341.906,454.521 341.906,500.055 " />
<polyline points="341.906,454.521 341.906,436.594 " />
<polyline points="341.906,436.594 341.906,324.275 " />
<polyline points="314.628,366.485 331.36,380.67 " />
<polyline points="315.823,374.123 315.823,370.85 317.018,368.668 319.409,366.485 322.994,365.394 325.384,365.394 328.97,366.485 331.36,368.668 332.555,370.85 332.555,374.123 331.36,376.306 328.97,378.488 325.384,379.579 322.994,379.579 319.409,378.488 317.018,376.306 315.823,374.123 " />
<polyline points="329.781,342.82 332.172,341.729 333.367,340.637 334.562,337.364 334.562,334.091 333.367,330.817 330.976,328.635 327.391,327.544 325.001,327.544 321.415,328.635 319.025,330.817 317.83,334.091 317.83,337.364 319.025,340.637 320.22,341.729 309.464,340.637 309.464,329.726 " />
</g>
<g clip-path="url(#clipId0)" fill="none" stroke="rgb(192,192,192)" stroke-width="1px" >
<polyline points="213.439,472.448 231.366,454.521 " />
</g>
<g clip-path="url(#clipId0)" fill="rgb(192,192,192)" stroke="rgb(192,192,192)" stroke-width="1px" >
<path d="M213.439,472.448 213.439,454.521 217.024,468.862 z" />
<path d="M217.024,468.862 213.439,454.521 217.024,454.521 z" />
<path d="M217.024,468.862 217.024,454.521 231.366,454.521 z" />
</g>
<g clip-path="url(#clipId0)" fill="none" stroke="rgb(192,192,192)" stroke-width="1px" >
<polyline points="231.366,436.594 213.439,418.667 " />
</g>
<g clip-path="url(#clipId0)" fill="rgb(192,192,192)" stroke="rgb(192,192,192)" stroke-width="1px" >
<path d="M213.439,436.594 213.439,418.667 217.024,436.594 z" />
<path d="M217.024,436.594 213.439,418.667 217.024,422.252 z" />
<path d="M217.024,436.594 217.024,422.252 231.366,436.594 z" />
</g>
<g clip-path="url(#clipId0)" fill="none" stroke="rgb(255,255,255)" stroke-width="1px" >
<polyline points="752.474,247.667 760.567,250.062 " />
<polyline points="761.131,249.084 755.01,243.273 " />
<polyline points="724.036,231.278 752.286,247.587 " />
<polyline points="754.847,243.151 726.597,226.842 " />
<polyline points="661.908,516.599 670.001,518.993 " />
<polyline points="670.565,518.016 664.445,512.205 " />
<polyline points="633.47,500.21 661.72,516.518 " />
<polyline points="664.281,512.082 636.031,495.774 " />
<polyline points="782.526,446.967 790.619,449.362 " />
<polyline points="791.183,448.384 785.063,442.574 " />
<polyline points="754.088,430.579 782.338,446.887 " />
<polyline points="784.899,442.451 756.649,426.143 " />
<polyline points="740.186,282.957 707.186,302.008 " />
<polyline points="723.686,254.376 740.186,282.957 " />
<polyline points="720.97,174.855 697.693,242.052 " />
<polyline points="720.969,174.855 697.692,242.051 " />
<polyline points="720.969,174.855 720.97,174.855 " />
<polyline points="740.185,282.957 740.186,282.957 " />
<polyline points="723.686,254.376 740.185,282.957 " />
<polyline points="740.185,282.957 707.187,302.007 " />
<polyline points="705.376,307.235 743.808,285.048 " />
<polyline points="743.808,285.048 724.592,251.761 " />
<polyline points="724.592,251.761 705.376,307.235 " />
<polyline points="686.261,464.65 701.415,416.529 " />
<polyline points="672.101,472.824 686.261,464.65 " />
<polyline points="656.005,523.94 658.861,514.868 " />
<polyline points="660.437,509.864 672.101,472.824 " />
<polyline points="579.344,568.195 656.005,523.94 " />
<polyline points="579.344,568.195 694.335,236.236 " />
<polyline points="700.409,246.757 694.335,236.236 " />
<polyline points="700.409,246.757 724.592,176.946 " />
<polyline points="839.583,376.139 724.592,176.946 " />
<polyline points="791.218,404.06 839.583,376.139 " />
<polyline points="809.327,435.429 791.218,404.06 " />
<polyline points="732.666,479.684 787.03,448.3 " />
<polyline points="789.558,446.841 809.327,435.429 " />
<polyline points="701.415,416.529 732.666,479.684 " />
<polyline points="575.722,566.104 579.344,568.195 " />
<polyline points="690.713,234.145 694.335,236.236 " />
<polyline points="575.722,566.104 690.713,234.145 " />
<polyline points="720.97,174.855 724.592,176.946 " />
<polyline points="761.213,249.318 761.182,249.157 761.095,249.057 760.964,249.032 760.81,249.085 760.656,249.21 760.525,249.386 760.438,249.587 760.407,249.783 760.438,249.943 760.525,250.044 760.656,250.069 760.81,250.016 760.964,249.891 761.095,249.715 761.182,249.514 761.213,249.318 " />
<polyline points="752.474,247.667 752.286,247.587 751.893,247.135 751.755,246.414 751.893,245.534 752.286,244.629 752.873,243.837 753.566,243.278 754.259,243.037 754.847,243.151 755.01,243.273 " />
<polyline points="740.186,282.957 743.808,285.048 " />
<polyline points="670.647,518.249 670.616,518.089 670.529,517.988 670.398,517.963 670.244,518.017 670.09,518.141 669.959,518.317 669.872,518.519 669.841,518.714 669.872,518.875 669.959,518.975 670.09,519.001 670.244,518.947 670.398,518.823 670.529,518.646 670.616,518.445 670.647,518.249 " />
<polyline points="661.908,516.599 661.72,516.518 661.327,516.066 661.19,515.346 661.327,514.466 661.72,513.561 662.307,512.768 663,512.209 663.693,511.968 664.281,512.082 664.445,512.205 " />
<polyline points="729.044,477.593 732.666,479.684 " />
<polyline points="700.409,419.724 729.044,477.593 " />
<polyline points="791.265,448.618 791.234,448.458 791.147,448.357 791.016,448.332 790.862,448.385 790.708,448.51 790.577,448.686 790.49,448.887 790.459,449.083 790.49,449.243 790.577,449.344 790.708,449.369 790.862,449.316 791.016,449.191 791.147,449.015 791.234,448.814 791.265,448.618 " />
<polyline points="782.526,446.967 782.338,446.887 781.945,446.435 781.808,445.714 781.945,444.835 782.338,443.929 782.925,443.137 783.618,442.578 784.311,442.337 784.899,442.451 785.063,442.574 " />
</g>
<g clip-path="url(#clipId0)" fill="none" stroke="rgb(128,128,128)" stroke-width="1px" >
<polyline points="722.057,230.106 722.194,229.076 722.591,227.999 723.205,226.992 723.97,226.163 724.801,225.604 725.61,225.373 726.309,225.497 726.822,225.962 727.093,226.717 727.127,227.149 " />
<polyline points="724.566,231.585 723.97,231.84 723.205,231.894 722.591,231.595 722.194,230.977 722.057,230.106 " />
<polyline points="631.491,499.037 631.628,498.007 632.025,496.931 632.639,495.923 633.404,495.095 634.235,494.535 635.045,494.305 635.743,494.429 636.256,494.893 636.527,495.648 636.561,496.08 " />
<polyline points="634,500.516 633.404,500.771 632.639,500.825 632.025,500.527 631.628,499.909 631.491,499.037 " />
<polyline points="752.109,429.406 752.246,428.376 752.644,427.299 753.258,426.292 754.022,425.464 754.854,424.904 755.663,424.673 756.361,424.797 756.874,425.262 757.145,426.017 757.179,426.449 " />
<polyline points="754.619,430.885 754.022,431.14 753.258,431.194 752.644,430.896 752.246,430.277 752.109,429.406 " />
<polyline points="723.505,230.106 723.643,230.826 724.036,231.278 724.036,231.278 " />
<polyline points="726.597,226.842 726.009,226.728 725.316,226.969 724.623,227.528 724.036,228.321 723.643,229.226 723.505,230.106 " />
<polyline points="632.94,499.037 633.077,499.758 633.47,500.21 633.47,500.21 " />
<polyline points="636.031,495.774 635.443,495.66 634.75,495.901 634.057,496.46 633.47,497.252 633.077,498.157 632.94,499.037 " />
<polyline points="753.558,429.406 753.695,430.127 754.088,430.578 754.088,430.579 " />
<polyline points="756.649,426.143 756.062,426.029 755.369,426.269 754.676,426.829 754.088,427.621 753.695,428.526 753.558,429.406 " />
</g>
</svg>
